<svg width="1440" height="5142" viewBox="0 0 1440 5142" fill="none" xmlns="http://www.w3.org/2000/svg">
<rect width="1440" height="5142" fill="#FFF7DF"/>
<rect width="89" height="89.6131" fill="#ACC2F5"/>
<rect y="177.257" width="89" height="89.6131" fill="#CBB3A9"/>
<rect y="354.514" width="89" height="89.6131" fill="#82C47D"/>
<rect y="531.771" width="89" height="89.6131" fill="#F3ADD1"/>
<rect x="360" width="89" height="89.6131" fill="#F3ADD1"/>
<rect x="1260" y="1330.41" width="89" height="89.6131" fill="#F3ADD1"/>
<rect x="360" y="177.257" width="89" height="89.6131" fill="#F18575"/>
<rect x="360" y="354.514" width="89" height="89.6131" fill="#FEE36A"/>
<rect x="359" y="532.755" width="89" height="89.6131" fill="#ACC2F5"/>
<rect x="89" y="89.6133" width="91" height="87.6436" fill="#FEE36A"/>
<rect x="89" y="266.87" width="91" height="87.6436" fill="#F3ADD1"/>
<rect x="89" y="444.126" width="91" height="87.6436" fill="#F18575"/>
<rect x="89" y="621.383" width="91" height="87.6436" fill="#82C37D"/>
<rect x="449" y="89.6133" width="91" height="87.6436" fill="#82C37D"/>
<rect x="449" y="266.87" width="91" height="87.6436" fill="#ACC2F5"/>
<rect x="449" y="444.126" width="91" height="87.6436" fill="#CBB3A9"/>
<rect x="89" y="977.866" width="91" height="87.6436" fill="#CBB3A9"/>
<rect x="449" y="621.383" width="91" height="87.6436" fill="#FEE36A"/>
<rect x="1" y="712.966" width="91" height="87.6436" fill="#FEE36A"/>
<rect x="1" y="1069.45" width="91" height="87.6436" fill="#FEE36A"/>
<rect x="180" width="89" height="89.6131" fill="#CDEEB3"/>
<rect y="885.299" width="89" height="89.6131" fill="#CDEEB3"/>
<rect x="180" y="177.257" width="89" height="89.6131" fill="#D2A6FF"/>
<rect x="180" y="354.514" width="89" height="89.6131" fill="#FFB99D"/>
<rect x="180" y="531.771" width="89" height="89.6131" fill="#CDEEB3"/>
<rect x="269" y="89.6133" width="91" height="87.6436" fill="#FFB99D"/>
<rect x="269" y="266.87" width="91" height="87.6436" fill="#CDEEB3"/>
<rect x="269" y="444.126" width="91" height="87.6436" fill="#D2A6FF"/>
<rect x="249" y="622.368" width="91" height="87.6436" fill="#FFB99D"/>
<rect x="540" width="89" height="89.6131" fill="#ACC2F5"/>
<rect x="540" y="177.257" width="89" height="89.6131" fill="#CBB3A9"/>
<rect x="540" y="354.514" width="89" height="89.6131" fill="#82C47D"/>
<rect x="540" y="531.771" width="89" height="89.6131" fill="#F3ADD1"/>
<rect x="180" y="1065.51" width="89" height="89.6131" fill="#F3ADD1"/>
<rect x="900" width="89" height="89.6131" fill="#F3ADD1"/>
<rect x="900" y="177.257" width="89" height="89.6131" fill="#F18575"/>
<rect x="810" y="619.414" width="89" height="89.6131" fill="#F18575"/>
<rect x="900" y="354.514" width="89" height="89.6131" fill="#FEE36A"/>
<rect x="1079" y="709.027" width="89" height="89.6131" fill="#ACC2F5"/>
<rect x="629" y="89.6133" width="91" height="87.6436" fill="#FEE36A"/>
<rect x="629" y="266.87" width="91" height="87.6436" fill="#F3ADD1"/>
<rect x="629" y="444.126" width="91" height="87.6436" fill="#F18575"/>
<rect x="629" y="621.383" width="91" height="87.6436" fill="#82C37D"/>
<rect x="989" y="89.6133" width="91" height="87.6436" fill="#82C37D"/>
<rect x="989" y="266.87" width="91" height="87.6436" fill="#ACC2F5"/>
<rect x="899" y="709.027" width="91" height="87.6436" fill="#ACC2F5"/>
<rect x="1347" y="1242.77" width="91" height="87.6436" fill="#ACC2F5"/>
<rect x="989" y="444.126" width="91" height="87.6436" fill="#CBB3A9"/>
<rect x="1168" y="798.64" width="91" height="87.6436" fill="#FEE36A"/>
<rect x="720" width="89" height="89.6131" fill="#CDEEB3"/>
<rect x="720" y="177.257" width="89" height="89.6131" fill="#D2A6FF"/>
<rect x="720" y="354.514" width="89" height="89.6131" fill="#FFB99D"/>
<rect x="720" y="531.771" width="89" height="89.6131" fill="#CDEEB3"/>
<rect x="809" y="89.6133" width="91" height="87.6436" fill="#FFB99D"/>
<rect x="809" y="266.87" width="91" height="87.6436" fill="#CDEEB3"/>
<rect x="988" y="621.383" width="91" height="87.6436" fill="#D2A6FF"/>
<rect x="988" y="798.64" width="91" height="87.6436" fill="#FFB99D"/>
<rect x="1079" width="89" height="89.6131" fill="#ACC2F5"/>
<rect x="1079" y="177.257" width="89" height="89.6131" fill="#CBB3A9"/>
<rect x="1079" y="354.514" width="89" height="89.6131" fill="#82C47D"/>
<rect x="1079" y="531.771" width="89" height="89.6131" fill="#F3ADD1"/>
<rect x="269" y="796.67" width="89" height="89.6131" fill="#F3ADD1"/>
<rect x="1168" y="89.6133" width="91" height="87.6436" fill="#FEE36A"/>
<rect x="1168" y="266.87" width="91" height="87.6436" fill="#F3ADD1"/>
<rect x="1168" y="444.126" width="91" height="87.6436" fill="#F18575"/>
<rect x="358" y="709.027" width="91" height="87.6436" fill="#F18575"/>
<rect x="1347" y="798.64" width="91" height="87.6436" fill="#82C37D"/>
<rect x="358" y="886.284" width="91" height="87.6436" fill="#82C37D"/>
<rect x="1259" width="89" height="89.6131" fill="#CDEEB3"/>
<rect x="1259" y="177.257" width="89" height="89.6131" fill="#D2A6FF"/>
<rect x="1259" y="354.514" width="89" height="89.6131" fill="#FFB99D"/>
<rect x="1259" y="531.771" width="89" height="89.6131" fill="#CDEEB3"/>
<rect x="449" y="796.67" width="89" height="89.6131" fill="#CDEEB3"/>
<rect x="3" y="1330.41" width="89" height="89.6131" fill="#CDEEB3"/>
<rect x="1348" y="89.6133" width="91" height="87.6436" fill="#FFB99D"/>
<rect x="1256" y="885.299" width="91" height="87.6436" fill="#FFB99D"/>
<rect x="1348" y="266.87" width="91" height="87.6436" fill="#CDEEB3"/>
<rect x="1348" y="444.126" width="91" height="87.6436" fill="#D2A6FF"/>
<rect x="538" y="709.027" width="91" height="87.6436" fill="#D2A6FF"/>
<rect x="90" y="800.609" width="91" height="87.6436" fill="#D2A6FF"/>
<rect x="178" y="1242.77" width="91" height="87.6436" fill="#D2A6FF"/>
<rect x="1348" y="621.383" width="91" height="87.6436" fill="#FFB99D"/>
</svg>
