<svg width="1440" height="2244" viewBox="0 0 1440 2244" fill="none" xmlns="http://www.w3.org/2000/svg">
<rect width="1440" height="2244" fill="#FFF7DF"/>
<rect width="89" height="91" fill="#ACC2F5"/>
<rect y="180" width="89" height="91" fill="#CBB3A9"/>
<rect y="360" width="89" height="91" fill="#82C47D"/>
<rect y="540" width="89" height="91" fill="#F3ADD1"/>
<rect x="360" width="89" height="91" fill="#F3ADD1"/>
<rect x="1260" y="1351" width="89" height="91" fill="#F3ADD1"/>
<rect x="360" y="180" width="89" height="91" fill="#F18575"/>
<rect x="360" y="360" width="89" height="91" fill="#FEE36A"/>
<rect x="359" y="541" width="89" height="91" fill="#ACC2F5"/>
<rect x="89" y="91" width="91" height="89" fill="#FEE36A"/>
<rect x="89" y="271" width="91" height="89" fill="#F3ADD1"/>
<rect x="89" y="451" width="91" height="89" fill="#F18575"/>
<rect x="89" y="631" width="91" height="89" fill="#82C37D"/>
<rect x="449" y="91" width="91" height="89" fill="#82C37D"/>
<rect x="449" y="271" width="91" height="89" fill="#ACC2F5"/>
<rect x="449" y="451" width="91" height="89" fill="#CBB3A9"/>
<rect x="89" y="993" width="91" height="89" fill="#CBB3A9"/>
<rect x="449" y="631" width="91" height="89" fill="#FEE36A"/>
<rect x="1" y="724" width="91" height="89" fill="#FEE36A"/>
<rect x="1" y="1086" width="91" height="89" fill="#FEE36A"/>
<rect x="180" width="89" height="91" fill="#CDEEB3"/>
<rect y="899" width="89" height="91" fill="#CDEEB3"/>
<rect x="180" y="180" width="89" height="91" fill="#D2A6FF"/>
<rect x="180" y="360" width="89" height="91" fill="#FFB99D"/>
<rect x="180" y="540" width="89" height="91" fill="#CDEEB3"/>
<rect x="269" y="91" width="91" height="89" fill="#FFB99D"/>
<rect x="269" y="271" width="91" height="89" fill="#CDEEB3"/>
<rect x="269" y="451" width="91" height="89" fill="#D2A6FF"/>
<rect x="249" y="632" width="91" height="89" fill="#FFB99D"/>
<rect x="540" width="89" height="91" fill="#ACC2F5"/>
<rect x="540" y="180" width="89" height="91" fill="#CBB3A9"/>
<rect x="540" y="360" width="89" height="91" fill="#82C47D"/>
<rect x="540" y="540" width="89" height="91" fill="#F3ADD1"/>
<rect x="180" y="1082" width="89" height="91" fill="#F3ADD1"/>
<rect x="900" width="89" height="91" fill="#F3ADD1"/>
<rect x="900" y="180" width="89" height="91" fill="#F18575"/>
<rect x="810" y="629" width="89" height="91" fill="#F18575"/>
<rect x="900" y="360" width="89" height="91" fill="#FEE36A"/>
<rect x="1079" y="720" width="89" height="91" fill="#ACC2F5"/>
<rect x="629" y="91" width="91" height="89" fill="#FEE36A"/>
<rect x="629" y="271" width="91" height="89" fill="#F3ADD1"/>
<rect x="629" y="451" width="91" height="89" fill="#F18575"/>
<rect x="629" y="631" width="91" height="89" fill="#82C37D"/>
<rect x="989" y="91" width="91" height="89" fill="#82C37D"/>
<rect x="989" y="271" width="91" height="89" fill="#ACC2F5"/>
<rect x="899" y="720" width="91" height="89" fill="#ACC2F5"/>
<rect x="1347" y="1262" width="91" height="89" fill="#ACC2F5"/>
<rect x="989" y="451" width="91" height="89" fill="#CBB3A9"/>
<rect x="1168" y="811" width="91" height="89" fill="#FEE36A"/>
<rect x="720" width="89" height="91" fill="#CDEEB3"/>
<rect x="720" y="180" width="89" height="91" fill="#D2A6FF"/>
<rect x="720" y="360" width="89" height="91" fill="#FFB99D"/>
<rect x="720" y="540" width="89" height="91" fill="#CDEEB3"/>
<rect x="809" y="91" width="91" height="89" fill="#FFB99D"/>
<rect x="809" y="271" width="91" height="89" fill="#CDEEB3"/>
<rect x="988" y="631" width="91" height="89" fill="#D2A6FF"/>
<rect x="988" y="811" width="91" height="89" fill="#FFB99D"/>
<rect x="1079" width="89" height="91" fill="#ACC2F5"/>
<rect x="1079" y="180" width="89" height="91" fill="#CBB3A9"/>
<rect x="1079" y="360" width="89" height="91" fill="#82C47D"/>
<rect x="1079" y="540" width="89" height="91" fill="#F3ADD1"/>
<rect x="269" y="809" width="89" height="91" fill="#F3ADD1"/>
<rect x="1168" y="91" width="91" height="89" fill="#FEE36A"/>
<rect x="1168" y="271" width="91" height="89" fill="#F3ADD1"/>
<rect x="1168" y="451" width="91" height="89" fill="#F18575"/>
<rect x="358" y="720" width="91" height="89" fill="#F18575"/>
<rect x="1347" y="811" width="91" height="89" fill="#82C37D"/>
<rect x="358" y="900" width="91" height="89" fill="#82C37D"/>
<rect x="1259" width="89" height="91" fill="#CDEEB3"/>
<rect x="1259" y="180" width="89" height="91" fill="#D2A6FF"/>
<rect x="1259" y="360" width="89" height="91" fill="#FFB99D"/>
<rect x="1259" y="540" width="89" height="91" fill="#CDEEB3"/>
<rect x="449" y="809" width="89" height="91" fill="#CDEEB3"/>
<rect x="3" y="1351" width="89" height="91" fill="#CDEEB3"/>
<rect x="1348" y="91" width="91" height="89" fill="#FFB99D"/>
<rect x="1256" y="899" width="91" height="89" fill="#FFB99D"/>
<rect x="1348" y="271" width="91" height="89" fill="#CDEEB3"/>
<rect x="1348" y="451" width="91" height="89" fill="#D2A6FF"/>
<rect x="538" y="720" width="91" height="89" fill="#D2A6FF"/>
<rect x="90" y="813" width="91" height="89" fill="#D2A6FF"/>
<rect x="178" y="1262" width="91" height="89" fill="#D2A6FF"/>
<rect x="1348" y="631" width="91" height="89" fill="#FFB99D"/>
</svg>
